#N canvas -1606 -34 1199 799 10;
#X obj 352 177 eucgui;
#X obj 105 715 makenote;
#X obj 105 671 t b f b;
#X obj 283 715 makenote;
#X obj 283 671 t b f b;
#X msg 329 693 20;
#X text 204 694 MIDI NOTE ->;
#X text 8 652 BEATS OUTLET ->;
#X text 298 652 <- ACCENTS OUTLET;
#X text 357 691 <- DURATION (ms);
#X text 65 757 MIDI OUT (Channel Nubmer);
#X text 24 694 MIDI NOTE ->;
#X obj 544 81 i;
#X obj 581 81 + 1;
#X obj 544 55 metro 500;
#X floatatom 595 28 5 0 0 0 - - -;
#X obj 544 9 tgl 15 0 empty empty empty 17 7 0 10 -262144 -1 -1 1 1
;
#X obj 105 737 noteout 10;
#X obj 283 737 noteout 10;
#X obj 520 711 makenote;
#X obj 520 667 t b f b;
#X msg 566 689 20;
#X obj 698 711 makenote;
#X obj 698 667 t b f b;
#X msg 744 689 20;
#X text 619 690 MIDI NOTE ->;
#X text 423 648 BEATS OUTLET ->;
#X text 713 648 <- ACCENTS OUTLET;
#X text 772 687 <- DURATION (ms);
#X text 480 753 MIDI OUT (Channel Nubmer);
#X text 439 690 MIDI NOTE ->;
#X obj 520 733 noteout 10;
#X obj 698 733 noteout 10;
#X msg 667 61 1;
#X msg 659 15 0;
#X obj 549 178 eucgui;
#X obj 916 701 makenote;
#X obj 916 657 t b f b;
#X msg 962 679 20;
#X obj 1094 701 makenote;
#X obj 1094 657 t b f b;
#X msg 1140 679 20;
#X text 1015 680 MIDI NOTE ->;
#X text 819 638 BEATS OUTLET ->;
#X text 1109 638 <- ACCENTS OUTLET;
#X text 1168 677 <- DURATION (ms);
#X text 876 743 MIDI OUT (Channel Nubmer);
#X text 835 680 MIDI NOTE ->;
#X obj 916 723 noteout 10;
#X obj 1094 723 noteout 10;
#X obj 741 177 eucgui;
#X msg 151 693 20;
#X obj 683 126 i;
#X obj 745 41 bng 15 250 50 0 empty empty empty 17 7 0 10 -262144 -1
-1;
#X floatatom 769 145 5 0 0 0 - - -;
#X obj 731 93 - 2;
#X msg 106 693 30;
#X msg 284 698 31;
#X msg 916 679 35;
#X msg 1095 680 31;
#X msg 520 690 30;
#X msg 698 689 32;
#X msg 206 379 10;
#X obj 139 347 t a b b;
#X obj 139 405 ctlout;
#X floatatom 139 318 5 0 0 0 - - -;
#X msg 173 379 10;
#X obj 141 249 hsl 128 15 0 16 0 0 empty empty empty -2 -8 0 10 -262144
-1 -1 11700 1;
#X obj 138 284 i;
#X obj 114 190 cnv 30 60 60 empty empty BITKRUSHER 20 12 0 14 -262144
-66577 0;
#X connect 0 0 2 0;
#X connect 0 1 4 0;
#X connect 1 0 17 0;
#X connect 1 1 17 1;
#X connect 2 0 56 0;
#X connect 2 1 1 1;
#X connect 2 2 51 0;
#X connect 3 0 18 0;
#X connect 3 1 18 1;
#X connect 4 0 57 0;
#X connect 4 1 3 1;
#X connect 4 2 5 0;
#X connect 5 0 3 2;
#X connect 12 0 13 0;
#X connect 12 0 0 0;
#X connect 12 0 35 0;
#X connect 12 0 50 0;
#X connect 12 0 55 0;
#X connect 13 0 12 1;
#X connect 14 0 12 0;
#X connect 15 0 14 1;
#X connect 16 0 14 0;
#X connect 19 0 31 0;
#X connect 19 1 31 1;
#X connect 20 0 60 0;
#X connect 20 1 19 1;
#X connect 20 2 21 0;
#X connect 21 0 19 2;
#X connect 22 0 32 0;
#X connect 22 1 32 1;
#X connect 23 0 61 0;
#X connect 23 1 22 1;
#X connect 23 2 24 0;
#X connect 24 0 22 2;
#X connect 33 0 13 1;
#X connect 34 0 12 1;
#X connect 35 0 20 0;
#X connect 35 1 23 0;
#X connect 36 0 48 0;
#X connect 36 1 48 1;
#X connect 37 0 58 0;
#X connect 37 1 36 1;
#X connect 37 2 38 0;
#X connect 38 0 36 2;
#X connect 39 0 49 0;
#X connect 39 1 49 1;
#X connect 40 0 59 0;
#X connect 40 1 39 1;
#X connect 40 2 41 0;
#X connect 41 0 39 2;
#X connect 50 0 37 0;
#X connect 50 1 40 0;
#X connect 51 0 1 2;
#X connect 52 0 0 0;
#X connect 52 0 35 0;
#X connect 52 0 50 0;
#X connect 52 0 54 0;
#X connect 52 0 12 1;
#X connect 53 0 52 0;
#X connect 55 0 52 1;
#X connect 56 0 1 0;
#X connect 57 0 3 0;
#X connect 58 0 36 0;
#X connect 59 0 39 0;
#X connect 60 0 19 0;
#X connect 61 0 22 0;
#X connect 62 0 64 2;
#X connect 63 0 64 0;
#X connect 63 1 66 0;
#X connect 63 2 62 0;
#X connect 65 0 63 0;
#X connect 66 0 64 1;
#X connect 67 0 68 0;
#X connect 68 0 65 0;
#X coords 0 799 1 798 185 435 0;
