#N canvas -1115 -157 875 766 10;
#X obj 0 595 cnv 15 552 21 empty \$0-pddp.cnv.footer empty 20 12 0
14 -228856 -66577 0;
#X obj 0 0 cnv 15 552 40 empty \$0-pddp.cnv.header noteout 3 12 0 18
-204280 -1 0;
#X obj 0 352 cnv 3 550 3 empty \$0-pddp.cnv.inlets inlets 8 12 0 13
-228856 -1 0;
#N canvas 49 244 494 369 META 0;
#X text 12 65 PLATFORM windows macosx gnulinux;
#X text 12 145 LIBRARY internal;
#X text 12 185 WEBSITE http://crca.ucsd.edu/~msp/;
#X text 12 25 LICENSE SIBSD;
#X text 12 165 AUTHOR Miller Puckette;
#X text 12 225 HELP_PATCH_AUTHORS This help patch was updated for Pd
version 0.35 by Michal Seta as part of a project called pddp proposed
by Krzysztof Czaja \, managed and edited by Dave Sabine \, to build
comprehensive documentation for Pd. Jonathan Wilkes revised the patch
to conform to the PDDP template for Pd version 0.42.;
#X text 12 5 KEYWORDS control MIDI;
#X text 12 45 DESCRIPTION transmit MIDI notes;
#X text 12 85 INLET_0 float list;
#X text 12 125 INLET_2 float;
#X text 12 105 INLET_1 float;
#X text 12 205 RELEASE_DATE 1997;
#X restore 500 597 pd META;
#X obj 0 475 cnv 3 550 3 empty \$0-pddp.cnv.outlets outlets 8 12 0
13 -228856 -1 0;
#X obj 0 503 cnv 3 550 3 empty \$0-pddp.cnv.argument arguments 8 12
0 13 -228856 -1 0;
#X obj 0 566 cnv 3 550 3 empty \$0-pddp.cnv.more_info more_info 8 12
0 13 -228856 -1 0;
#N canvas 107 157 428 430 Related_objects 0;
#X obj 1 1 cnv 15 425 20 empty \$0-pddp.cnv.subheading empty 3 12 0
14 -204280 -1 0;
#X text 8 2 [noteout] Related Objects;
#X obj 74 80 ctlin;
#X obj 217 80 pgmin;
#X obj 24 80 bendin;
#X obj 79 107 touchin;
#X obj 261 80 polytouchin;
#X obj 118 80 midiin;
#X obj 23 107 sysexin;
#X obj 179 167 noteout;
#X obj 76 167 ctlout;
#X obj 24 167 bendout;
#X obj 366 167 touchout;
#X obj 280 167 polytouchout;
#X obj 123 167 midiout;
#X obj 231 167 pgmout;
#X obj 24 221 makenote;
#X text 21 198 MIDI note construction:;
#X text 21 140 MIDI output:;
#X text 21 57 MIDI input:;
#X obj 184 221 stripnote;
#X obj 24 33 notein;
#X text 181 198 MIDI note deconstruction:;
#X text 22 265 Additional useful objects for MIDI processing (Maxlib
by Olaf Matthes);
#X text 21 344 Also \, from cyclone (alpha) by Krzysztof Czaja:;
#X text 22 246 Externals;
#X obj 22 295 pddp/helplink maxlib/pitch;
#X obj 22 310 pddp/helplink maxlib/score;
#X obj 22 325 pddp/helplink maxlib/chord;
#X obj 22 360 pddp/helplink cyclone/midiformat;
#X obj 22 375 pddp/helplink cyclone/midiparse;
#X obj 22 390 pddp/helplink cyclone/midiflush;
#X restore 102 597 pd Related_objects;
#X obj 78 361 cnv 17 3 55 empty \$0-pddp.cnv.let.0 0 5 9 0 16 -228856
-162280 0;
#X text 98 360 float;
#X text 98 380 list;
#X obj 78 422 cnv 17 3 17 empty \$0-pddp.cnv.let.1 1 5 9 0 16 -228856
-162280 0;
#X text 98 421 float;
#X obj 473 3 noteout;
#X obj 445 20 pddp/pddplink http://wiki.puredata.info/en/noteout -text
pdpedia: noteout;
#X obj 78 447 cnv 17 3 17 empty \$0-pddp.cnv.let.2 2 5 9 0 16 -228856
-162280 0;
#X text 98 446 float;
#X text 98 479 (none);
#X obj 123 197 noteout;
#X msg 123 176 60 100 2;
#X obj 215 197 noteout 2;
#X msg 215 176 60 100;
#X msg 372 174 100;
#X obj 338 200 noteout;
#X text 108 228 (all three above) middle-c with velocity 100 sent to
channel 2;
#X obj 367 571 pddp/pddplink all_about_midi_flags.pd -text all_about_midi_flags
;
#X text 98 570 for an explanation of MIDI usage in Pd see:;
#X text 11 23 transmit MIDI notes;
#X text 168 380 - a three-element list (MIDI note \, velocity \, channel)
is distributed among the three inlets. Lists with more than two elements
will be truncated.;
#X text 168 521 - the MIDI channel number to which a note-on message
is to be sent. If no argument is provided [noteout] transmits on channel
1 (default).;
#X text 168 360 - (integer) MIDI note number (0-127).;
#X text 167 421 - (integer) velocity.;
#X text 167 446 - (integer) channel number.;
#X text 80 521 1) float;
#X obj 4 597 pddp/pddplink all_about_help_patches.pd -text Usage Guide
;
#X msg 405 174 10;
#X msg 277 120 44;
#X obj 277 74 bng 15 250 50 0 empty empty empty 17 7 0 10 -262144 -1
-1;
#X obj 338 142 t a b b;
#X obj 340 76 bng 15 250 50 0 empty empty empty 17 7 0 10 -262144 -1
-1;
#X obj 572 198 + 35;
#X obj 557 127 random 16;
#X msg 412 73 37;
#X msg 637 55 metro 1000;
#X obj 632 88 metro 1000;
#X obj 607 40 tgl 15 0 empty empty empty 17 7 0 10 -262144 -1 -1 0
1;
#X floatatom 700 36 5 0 0 0 - - -;
#X floatatom 572 241 5 0 0 0 - - -;
#X msg 689 141 metro 1000;
#X obj 684 174 metro 1000;
#X obj 659 126 tgl 15 0 empty empty empty 17 7 0 10 -262144 -1 -1 0
1;
#X floatatom 752 122 5 0 0 0 - - -;
#X msg 461 70 40;
#X obj 387 303 ctl;
#X msg 647 380 10;
#X obj 580 348 t a b b;
#X obj 580 406 ctlout;
#X floatatom 573 300 5 0 0 0 - - -;
#X msg 614 380 0;
#X msg 664 528 10;
#X obj 597 496 t a b b;
#X obj 597 554 ctlout;
#X floatatom 590 448 5 0 0 0 - - -;
#X msg 631 528 1;
#X msg 659 688 10;
#X obj 592 656 t a b b;
#X obj 592 714 ctlout;
#X floatatom 585 608 5 0 0 0 - - -;
#X msg 789 681 10;
#X obj 722 649 t a b b;
#X obj 722 707 ctlout;
#X floatatom 715 601 5 0 0 0 - - -;
#X msg 626 688 2;
#X msg 756 681 3;
#X msg 511 713 10;
#X obj 444 681 t a b b;
#X obj 444 739 ctlout;
#X floatatom 437 633 5 0 0 0 - - -;
#X msg 478 713 4;
#X msg 393 716 10;
#X obj 326 684 t a b b;
#X obj 326 742 ctlout;
#X floatatom 319 636 5 0 0 0 - - -;
#X msg 360 716 5;
#X connect 19 0 18 0;
#X connect 21 0 20 0;
#X connect 22 0 23 1;
#X connect 35 0 23 2;
#X connect 36 0 23 0;
#X connect 37 0 36 0;
#X connect 38 0 23 0;
#X connect 38 1 22 0;
#X connect 38 2 35 0;
#X connect 39 0 41 0;
#X connect 40 0 38 0;
#X connect 40 0 47 0;
#X connect 41 0 40 0;
#X connect 42 0 38 0;
#X connect 44 0 39 0;
#X connect 45 0 44 0;
#X connect 46 0 44 1;
#X connect 49 0 52 0;
#X connect 50 0 49 0;
#X connect 51 0 49 1;
#X connect 52 0 38 0;
#X connect 54 0 56 2;
#X connect 55 0 56 0;
#X connect 55 1 58 0;
#X connect 55 2 54 0;
#X connect 57 0 55 0;
#X connect 58 0 56 1;
#X connect 59 0 61 2;
#X connect 60 0 61 0;
#X connect 60 1 63 0;
#X connect 60 2 59 0;
#X connect 62 0 60 0;
#X connect 63 0 61 1;
#X connect 64 0 66 2;
#X connect 65 0 66 0;
#X connect 65 1 72 0;
#X connect 65 2 64 0;
#X connect 67 0 65 0;
#X connect 68 0 70 2;
#X connect 69 0 70 0;
#X connect 69 1 73 0;
#X connect 69 2 68 0;
#X connect 71 0 69 0;
#X connect 72 0 66 1;
#X connect 73 0 70 1;
#X connect 74 0 76 2;
#X connect 75 0 76 0;
#X connect 75 1 78 0;
#X connect 75 2 74 0;
#X connect 77 0 75 0;
#X connect 78 0 76 1;
#X connect 79 0 81 2;
#X connect 80 0 81 0;
#X connect 80 1 83 0;
#X connect 80 2 79 0;
#X connect 82 0 80 0;
#X connect 83 0 81 1;
