#N canvas 656 91 696 665 10;
#X obj 83 54 vsl 15 128 0 127 0 0 empty empty empty 0 -9 0 10 -262144
-1 -1 0 1;
#X obj 83 194 min 31;
#X obj 83 248 sendparam 0;
#X floatatom 83 220 5 0 0 0 - - -;
#X obj 163 54 vsl 15 128 0 127 0 0 empty empty empty 0 -9 0 10 -262144
-1 -1 0 1;
#X obj 163 194 min 31;
#X floatatom 163 220 5 0 0 0 - - -;
#X obj 163 248 sendparam 1;
#X obj 86 302 vsl 15 128 0 127 0 0 empty empty empty 0 -9 0 10 -262144
-1 -1 0 1;
#X obj 86 442 min 31;
#X floatatom 86 468 5 0 0 0 - - -;
#X obj 166 302 vsl 15 128 0 127 0 0 empty empty empty 0 -9 0 10 -262144
-1 -1 0 1;
#X obj 166 442 min 31;
#X floatatom 166 468 5 0 0 0 - - -;
#X obj 284 55 vsl 15 128 0 127 0 0 empty empty empty 0 -9 0 10 -262144
-1 -1 0 1;
#X obj 284 195 min 31;
#X floatatom 284 221 5 0 0 0 - - -;
#X obj 364 55 vsl 15 128 0 127 0 0 empty empty empty 0 -9 0 10 -262144
-1 -1 0 1;
#X obj 364 195 min 31;
#X floatatom 364 221 5 0 0 0 - - -;
#X obj 290 296 vsl 15 128 0 127 0 0 empty empty empty 0 -9 0 10 -262144
-1 -1 0 1;
#X obj 290 436 min 31;
#X floatatom 290 462 5 0 0 0 - - -;
#X obj 370 296 vsl 15 128 0 127 0 0 empty empty empty 0 -9 0 10 -262144
-1 -1 0 1;
#X obj 370 436 min 31;
#X floatatom 370 462 5 0 0 0 - - -;
#X obj 284 249 sendparam 2;
#X obj 364 249 sendparam 3;
#X obj 86 496 sendparam 4;
#X obj 166 496 sendparam 5;
#X obj 290 490 sendparam 6;
#X obj 370 490 sendparam 7;
#X obj 463 54 vsl 15 128 0 127 0 0 empty empty empty 0 -9 0 10 -262144
-1 -1 0 1;
#X obj 463 194 min 31;
#X floatatom 463 220 5 0 0 0 - - -;
#X obj 543 54 vsl 15 128 0 127 0 0 empty empty empty 0 -9 0 10 -262144
-1 -1 0 1;
#X obj 543 194 min 31;
#X floatatom 543 220 5 0 0 0 - - -;
#X obj 463 248 sendparam 8;
#X obj 543 248 sendparam 9;
#X connect 0 0 1 0;
#X connect 1 0 3 0;
#X connect 3 0 2 0;
#X connect 4 0 5 0;
#X connect 5 0 6 0;
#X connect 6 0 7 0;
#X connect 8 0 9 0;
#X connect 9 0 10 0;
#X connect 10 0 28 0;
#X connect 11 0 12 0;
#X connect 12 0 13 0;
#X connect 13 0 29 0;
#X connect 14 0 15 0;
#X connect 15 0 16 0;
#X connect 16 0 26 0;
#X connect 17 0 18 0;
#X connect 18 0 19 0;
#X connect 19 0 27 0;
#X connect 20 0 21 0;
#X connect 21 0 22 0;
#X connect 22 0 30 0;
#X connect 23 0 24 0;
#X connect 24 0 25 0;
#X connect 25 0 31 0;
#X connect 32 0 33 0;
#X connect 33 0 34 0;
#X connect 34 0 38 0;
#X connect 35 0 36 0;
#X connect 36 0 37 0;
#X connect 37 0 39 0;
