#N canvas 0 22 450 300 10;
#X msg 198 170 10;
#X obj 131 138 t a b b;
#X obj 131 196 ctlout;
#X obj 131 71 inlet;
#X obj 318 148 i \$1;
#X connect 0 0 2 2;
#X connect 1 0 2 0;
#X connect 1 1 4 0;
#X connect 1 2 0 0;
#X connect 3 0 1 0;
#X connect 4 0 2 1;
